<?xml version="1.0" standalone="no"?>
<!DOCTYPE svg PUBLIC "-//W3C//DTD SVG 20010904//EN"
 "http://www.w3.org/TR/2001/REC-SVG-20010904/DTD/svg10.dtd">
<svg version="1.0" xmlns="http://www.w3.org/2000/svg"
 width="2559.000000pt" height="2559.000000pt" viewBox="0 0 2559.000000 2559.000000"
 preserveAspectRatio="xMidYMid meet">

<g transform="translate(0.000000,2559.000000) scale(0.100000,-0.100000)"
fill="#000000" stroke="none">
<path d="M13185 23733 c-430 -34 -736 -82 -1097 -173 -1447 -366 -2865 -1252
-3948 -2468 l-65 -73 -127 35 c-523 144 -1021 203 -1613 193 -417 -7 -719 -41
-1100 -123 -1611 -348 -2972 -1362 -3663 -2732 -256 -507 -402 -996 -473
-1583 -30 -245 -33 -768 -6 -1009 64 -566 201 -1051 436 -1545 200 -419 530
-897 837 -1212 l85 -88 -37 60 c-313 499 -505 954 -628 1486 -121 520 -150
1122 -80 1664 102 796 412 1556 901 2211 763 1019 1922 1744 3246 2029 857
184 1816 161 2660 -65 82 -22 152 -40 156 -40 5 0 66 64 137 142 153 167 399
400 602 571 1034 865 2391 1468 3782 1681 388 59 659 80 1055 81 384 0 567
-16 915 -81 656 -122 1399 -428 2020 -832 640 -416 1167 -854 1790 -1489 l269
-275 43 30 c166 112 460 234 729 303 815 207 1720 84 2594 -353 478 -239 962
-582 1385 -982 52 -50 113 -106 134 -126 38 -34 39 -34 19 -5 -199 289 -573
703 -849 938 -455 387 -969 700 -1514 923 -900 367 -1855 498 -2838 388 l-144
-16 -246 244 c-325 320 -598 557 -932 805 -1165 866 -2438 1378 -3674 1478
-166 13 -634 19 -761 8z"/>
<path d="M16810 19551 c-534 -241 -948 -701 -1233 -1371 -458 -1079 -569
-2721 -306 -4535 85 -590 247 -1316 386 -1735 l18 -55 238 -3 c130 -1 237 -4
237 -7 0 -2 -50 -453 -110 -1002 -173 -1568 -229 -2073 -236 -2143 -21 -227
134 -466 378 -580 190 -89 436 -76 615 32 128 77 238 211 284 345 22 63 24 83
23 273 0 113 -10 417 -22 675 -105 2299 -148 4464 -159 8068 -4 1498 -9 2077
-17 2076 -6 0 -49 -17 -96 -38z"/>
<path d="M9453 19176 c-67 -32 -128 -94 -162 -165 l-26 -56 -3 -1848 c-2
-1557 0 -1858 12 -1915 39 -187 138 -356 310 -528 125 -125 249 -221 463 -361
81 -53 151 -99 156 -103 4 -3 -15 -508 -43 -1121 -89 -1980 -99 -2202 -135
-3004 -20 -434 -46 -1031 -60 -1325 -25 -557 -24 -614 11 -725 71 -221 248
-399 459 -461 90 -27 230 -25 325 4 242 75 428 293 471 555 14 87 18 -18 -56
1637 -25 547 -59 1294 -75 1660 -16 366 -37 823 -46 1015 -9 193 -30 667 -48
1055 l-31 705 164 108 c465 306 684 549 763 847 l23 85 0 1850 c0 1770 -1
1852 -18 1903 -26 72 -83 141 -148 177 -45 25 -65 30 -124 30 -59 0 -79 -5
-123 -30 -65 -35 -107 -81 -141 -155 l-26 -55 -5 -1525 -5 -1525 -22 -40
c-100 -184 -318 -185 -415 -3 l-23 43 -5 1535 -5 1535 -26 55 c-52 110 -138
170 -244 170 -107 0 -193 -60 -244 -169 l-26 -56 -5 -1540 -5 -1540 -21 -40
c-45 -84 -109 -128 -189 -128 -87 -1 -155 46 -197 138 l-23 50 -5 1520 -5
1520 -26 56 c-55 117 -161 189 -279 189 -48 0 -79 -7 -117 -24z"/>
<path d="M4225 17926 c-11 -8 -60 -40 -110 -72 -487 -315 -904 -741 -1181
-1209 -398 -669 -545 -1412 -434 -2196 95 -675 385 -1262 860 -1739 499 -502
1200 -886 2057 -1129 187 -53 463 -117 636 -147 55 -10 95 -20 88 -22 -8 -3
-11 -759 -11 -3030 l0 -3027 186 360 c102 198 257 500 345 671 l159 311 0
2612 c0 1983 3 2611 12 2611 34 0 -16 13 -179 45 -1242 244 -2229 771 -2818
1502 -357 444 -573 959 -651 1553 -22 169 -30 574 -15 736 74 783 401 1479
970 2067 62 64 112 117 110 116 -2 0 -13 -6 -24 -13z"/>
<path d="M22694 17189 c391 -407 660 -847 819 -1334 75 -232 122 -445 148
-685 16 -143 16 -526 0 -680 -66 -653 -287 -1198 -680 -1680 -212 -261 -539
-545 -851 -740 -561 -351 -1216 -598 -1977 -747 l-143 -27 0 -2348 c0 -1291
-2 -2348 -4 -2348 -2 0 -68 34 -147 76 -79 42 -175 91 -214 109 -38 18 -106
49 -149 69 -809 378 -1859 654 -2911 765 -436 46 -637 55 -1190 56 -522 0
-668 -6 -1055 -41 -1748 -159 -3350 -697 -4620 -1553 -129 -87 -329 -231 -364
-262 -5 -4 62 17 150 47 613 213 1447 412 2264 538 1251 194 2564 236 3810
120 1748 -161 3468 -650 5009 -1424 55 -27 104 -50 108 -50 5 0 7 1286 5 2857
-2 2260 -5 2859 -15 2865 -6 4 -9 8 -4 8 23 0 423 84 528 110 653 164 1234
412 1709 730 626 419 1064 975 1281 1622 117 351 164 662 163 1083 0 290 -12
413 -60 652 -184 910 -783 1744 -1634 2273 l-85 53 109 -114z"/>
</g>
</svg>
